<svg xmlns="http://www.w3.org/2000/svg" xml:space="preserve" height="268.676" width="1000" viewBox="0 0 999.998 268.675"><path d="M665.344-.001h-42.113v235.506a3559.43 3559.43 0 0 1 114.34 5.778V199.79a3595.083 3595.083 0 0 0-72.227-4.083zm334.654.023h-46.253l-30.481 70.672L895.852.022h-45.557l48.96 126.287-53.461 123.886a3494.387 3494.387 0 0 1 44.262 4.608l31.08-72.036 30.788 79.407a3494.905 3494.905 0 0 1 47.999 6.491l.06-.027-54.823-141.48zM478.696 233.448l42.113-.01v-95.8h57.084V96.147h-57.084v-54.26h75.445V.021H478.695zM321.445 41.89h44.07v194.026a3649.15 3649.15 0 0 1 42.112-1.332V41.887h44.072V.02H321.443zM177.477 247.98a3546.171 3546.171 0 0 1 116.972-8.69v-41.497a3609.737 3609.737 0 0 0-74.865 5.115v-62.819c16.326-.163 37.823-.66 56.868-.424V98.169c-15.214-.037-39.67.213-56.868.433v-56.71h74.865V.026H177.477zm-82.612-95.923L40.022.022H0v268.653a3581.533 3581.533 0 0 1 42.111-5.736V116.843l48.765 140.095c15.34-1.779 30.705-3.464 46.1-5.048V.02H94.862zm677.448 91.728a3403.17 3403.17 0 0 1 42.114 3.478V.023h-42.114v243.763" style="fill:#db202c"/></svg>